<svg width="40" height="29" viewBox="0 0 40 29" fill="none" xmlns="http://www.w3.org/2000/svg">
<path d="M8.57143 17.1429H2.85714C1.27946 17.1429 0 18.4223 0 20V25.7143C0 27.292 1.27946 28.5714 2.85714 28.5714H8.57143C10.1491 28.5714 11.4286 27.292 11.4286 25.7143V20C11.4286 18.4223 10.1491 17.1429 8.57143 17.1429ZM22.8571 17.1429H17.1429C15.5652 17.1429 14.2857 18.4223 14.2857 20V25.7143C14.2857 27.292 15.5652 28.5714 17.1429 28.5714H22.8571C24.4348 28.5714 25.7143 27.292 25.7143 25.7143V20C25.7143 18.4223 24.4348 17.1429 22.8571 17.1429ZM37.1429 17.1429H31.4286C29.8509 17.1429 28.5714 18.4223 28.5714 20V25.7143C28.5714 27.292 29.8509 28.5714 31.4286 28.5714H37.1429C38.7205 28.5714 40 27.292 40 25.7143V20C40 18.4223 38.7205 17.1429 37.1429 17.1429ZM8.57143 0H2.85714C1.27946 0 0 1.27946 0 2.85714V8.57143C0 10.1491 1.27946 11.4286 2.85714 11.4286H8.57143C10.1491 11.4286 11.4286 10.1491 11.4286 8.57143V2.85714C11.4286 1.27946 10.1491 0 8.57143 0ZM22.8571 0H17.1429C15.5652 0 14.2857 1.27946 14.2857 2.85714V8.57143C14.2857 10.1491 15.5652 11.4286 17.1429 11.4286H22.8571C24.4348 11.4286 25.7143 10.1491 25.7143 8.57143V2.85714C25.7143 1.27946 24.4348 0 22.8571 0ZM37.1429 0H31.4286C29.8509 0 28.5714 1.27946 28.5714 2.85714V8.57143C28.5714 10.1491 29.8509 11.4286 31.4286 11.4286H37.1429C38.7205 11.4286 40 10.1491 40 8.57143V2.85714C40 1.27946 38.7205 0 37.1429 0Z" fill="white"/>
</svg>
