<svg width="40" height="30" viewBox="0 0 40 30" fill="none" xmlns="http://www.w3.org/2000/svg">
<path d="M38.75 25H5V1.25C5 0.559375 4.44063 0 3.75 0H1.25C0.559375 0 0 0.559375 0 1.25V27.5C0 28.8805 1.11953 30 2.5 30H38.75C39.4406 30 40 29.4406 40 28.75V26.25C40 25.5594 39.4406 25 38.75 25ZM36.25 2.5H27.0266C25.3563 2.5 24.5195 4.51953 25.7008 5.70078L28.232 8.23203L22.5 13.9648L16.768 8.23281C15.7914 7.25625 14.2086 7.25625 13.2328 8.23281L7.86641 13.5992C7.37813 14.0875 7.37813 14.8789 7.86641 15.3672L9.63359 17.1344C10.1219 17.6227 10.9133 17.6227 11.4016 17.1344L15 13.5352L20.732 19.2672C21.7086 20.2437 23.2914 20.2437 24.2672 19.2672L31.7672 11.7672L34.2984 14.2984C35.4797 15.4797 37.4992 14.643 37.4992 12.9727V3.75C37.5 3.05937 36.9406 2.5 36.25 2.5Z" fill="white"/>
</svg>
