<svg width="41" height="40" viewBox="0 0 41 40" fill="none" xmlns="http://www.w3.org/2000/svg">
<path d="M41 19.9622C41.0209 30.9816 31.8097 39.9923 20.5149 40C15.6366 40.0034 11.1557 38.3443 7.63443 35.5717C6.71879 34.8507 6.65034 33.5119 7.48241 32.7001L8.41376 31.7915C9.12539 31.0972 10.2615 31.0213 11.0499 31.6315C13.6442 33.64 16.9274 34.8388 20.5 34.8388C28.907 34.8388 35.7096 28.2008 35.7096 20C35.7096 11.798 28.9057 5.1613 20.5 5.1613C16.465 5.1613 12.8002 6.69106 10.079 9.18808L14.2744 13.2812C15.1077 14.0941 14.5175 15.4839 13.3393 15.4839H1.32258C0.592102 15.4839 0 14.9062 0 14.1936V2.46992C0 1.32041 1.42458 0.744679 2.25781 1.5575L6.33896 5.53912C10.0193 2.10775 15.0073 0 20.5 0C31.8089 0 40.9791 8.93389 41 19.9622ZM26.0456 26.3158L26.8575 25.2972C27.5302 24.4534 27.3744 23.2374 26.5095 22.5812L23.1451 20.0282V11.6129C23.1451 10.544 22.2569 9.67744 21.1613 9.67744H19.8387C18.743 9.67744 17.8548 10.544 17.8548 11.6129V22.5525L23.2616 26.6553C24.1265 27.3115 25.3729 27.1596 26.0456 26.3158Z" fill="white"/>
</svg>
